<svg xmlns="http://www.w3.org/2000/svg" version="1.1" xmlns:xlink="http://www.w3.org/1999/xlink" xmlns:svgjs="http://svgjs.dev/svgjs" width="2000" height="1247" viewBox="0 0 2000 1247"><g transform="matrix(1,0,0,1,-1.2121212121212466,0.5048582995951847)"><svg viewBox="0 0 396 247" data-background-color="#ffffff" preserveAspectRatio="xMidYMid meet" height="1247" width="2000" xmlns="http://www.w3.org/2000/svg" xmlns:xlink="http://www.w3.org/1999/xlink"><g id="tight-bounds" transform="matrix(1,0,0,1,0.2400000000000091,-0.09999999999999432)"><svg viewBox="0 0 395.52 247.2" height="247.2" width="395.52"><g><svg></svg></g><g><svg viewBox="0 0 395.52 247.2" height="247.2" width="395.52"><g mask="url(&quot;#6b0c688d-032d-4ec4-8727-3de02199e286&quot;)"><g><path d="M325.995 67.637v0c-8.469 3.433-15.725 5.15-21.767 5.15-6.088 0-9.133-1.259-9.133-3.777v0c0-1.602 3.365-2.518 10.094-2.747 6.775-0.229 11.65-1.03 14.626-2.403v0c8.698-4.578 13.047-11.33 13.047-20.257v0c0-4.578-1.259-9.384-3.777-14.42v0c-7.324-13.047-25.063-19.57-53.217-19.57v0c-16.251 0-32.502 2.449-48.753 7.348-16.251 4.944-29.87 12.497-40.857 22.66-10.987 10.208-16.48 19.662-16.48 28.359v0c0 13.276 13.161 23.003 39.484 29.183v0l40.513 7.554c16.251 2.976 28.382 7.096 36.393 12.36v0c10.529 6.409 15.793 15.564 15.794 27.466v0c0 4.807-0.801 9.957-2.404 15.45v0c-7.324 24.72-26.208 43.603-56.65 56.65v0c-25.407 11.216-55.391 16.823-89.953 16.824v0c-9.842 0-18.426-0.458-25.75-1.374v0c7.324 4.12 16.938 7.668 28.84 10.644v0c0.916 0.229 1.373 0.687 1.373 1.373v0c0 2.06-2.403 3.09-7.21 3.09v0c-9.384 0-21.058-5.608-35.02-16.823v0c-18.998-2.976-33.189-8.24-42.573-15.794v0c-5.951-4.807-11.444-11.902-16.48-21.286-5.036-9.384-7.553-17.853-7.553-25.407 0-7.553 1.488-13.848 4.463-18.883v0c6.867-12.131 15.564-18.197 26.093-18.197v0c8.011 0 12.703 6.752 14.077 20.257v0c3.204 26.093 5.379 40.971 6.523 44.633v0c3.433 11.216 9.27 20.714 17.51 28.497v0c9.613 2.06 20.028 3.09 31.244 3.09v0c24.72 0 48.982-4.921 72.786-14.764 23.804-9.842 40.971-23.804 51.5-41.886v0c4.349-7.096 6.523-13.39 6.524-18.884v0c0-10.758-9.499-19.112-28.497-25.063v0l-60.427-13.733c-12.36-2.976-22.248-7.897-29.664-14.764-7.462-6.867-11.193-14.763-11.192-23.69v0c0-13.733 8.583-27.467 25.75-41.2v0c13.047-10.529 29.023-18.723 47.929-24.582 18.86-5.814 37.4-8.721 55.62-8.721 18.174 0 33.212 2.632 45.114 7.897v0c15.336 7.096 23.003 17.441 23.003 31.037 0 13.642-6.981 23.209-20.943 28.703zM104.888 220.763v0c-13.276-14.649-21.744-34.677-25.406-60.083v0c-2.06-14.42-4.006-21.63-5.837-21.63-1.831 0-3.548 0.504-5.15 1.511-1.602 1.053-3.204 3.296-4.807 6.729-1.602 3.433-2.403 7.897-2.403 13.39v0c0 17.624 6.18 32.731 18.54 45.32v0c6.18 6.409 14.534 11.33 25.063 14.763z" fill="#ea3c12" fill-rule="nonzero" stroke="none" stroke-width="1" stroke-linecap="butt" stroke-linejoin="miter" stroke-miterlimit="10" stroke-dasharray="" stroke-dashoffset="0" font-family="none" font-weight="none" font-size="none" text-anchor="none" style="mix-blend-mode: normal" data-fill-palette-color="tertiary"></path></g></g><g transform="matrix(1,0,0,1,2.842170943040401e-14,102.47563636363637)"><svg viewBox="0 0 395.5199999999999 42.248727272727265" height="42.248727272727265" width="395.5199999999999"><g><svg viewBox="0 0 395.5199999999999 42.248727272727265" height="42.248727272727265" width="395.5199999999999"><g><svg viewBox="0 0 395.52000000000004 42.24872727272727" height="42.248727272727265" width="395.5199999999999"><g><svg viewBox="0 0 395.52000000000004 42.24872727272727" height="42.24872727272727" width="395.52000000000004"><g id="textblocktransform"><svg viewBox="0 0 395.52000000000004 42.24872727272727" height="42.24872727272727" width="395.52000000000004" id="textblock"><g><svg viewBox="0 0 395.52000000000004 42.24872727272727" height="42.24872727272727" width="395.52000000000004"><g transform="matrix(1,0,0,1,0,0)"><svg width="395.52000000000004" viewBox="-4.05 -27.9 286.97 31.549999999999997" height="42.24872727272727" data-palette-color="#ea3c12"><path d="M10.8-1.8L9.2-0.75Q7.75 0.1 5.63 0.1 3.5 0.1 2.38-1.3 1.25-2.7 0.45-5.75L0.45-5.75Q-0.45-4.85-0.8-4.85L-0.8-4.85Q-1.05-4.85-1.05-5.2-1.05-5.55-0.8-5.8L-0.8-5.8Q0.85-7.85 4.8-11.7L4.8-11.7 11.1-17.6Q13.8-20.15 14.3-20.15L14.3-20.15Q15.9-20.15 15.9-18.95L15.9-18.95Q15.9-18.35 15.43-17.78 14.95-17.2 14.73-16.88 14.5-16.55 14.25-16.25L14.25-16.25Q13.35-14.7 12.43-9.85 11.5-5 11-3.1L11-3.1Q15.15-3.15 19.55-8.5L19.55-8.5Q20.05-9 20.3-9 20.55-9 20.55-8.68 20.55-8.35 20.1-7.8L20.1-7.8Q17.2-4.4 14.7-3.05L14.7-3.05Q13.2-2.3 10.8-1.8L10.8-1.8ZM2.45-6.3L2.45-6.3Q2.45-4.6 3.58-3.53 4.7-2.45 6.1-2.45 7.5-2.45 8.25-3L8.25-3Q9.25-3.55 10.23-7.6 11.2-11.65 11.4-14.75L11.4-14.75 11.6-16.45Q8.85-14.4 5.73-11.15 2.6-7.9 2.5-6.85L2.5-6.85Q2.45-6.55 2.45-6.3ZM34.55-14.95L34.55-14.95 35.25-15.1Q35.8-15.1 36.3-14.65 36.8-14.2 36.8-13.95 36.8-13.7 33.7-9.13 30.6-4.55 30.6-2.75L30.6-2.75Q30.6-2.6 30.65-2.45L30.65-2.45Q30.9-1.3 31.75-1.3L31.75-1.3Q34.35-1.3 41.25-9.9L41.25-9.9Q41.4-10.1 41.6-10.1 41.8-10.1 41.8-9.73 41.8-9.35 41.35-8.75L41.35-8.75Q34.95-0.2 31.6-0.2L31.6-0.2Q31.15-0.2 30.75-0.35L30.75-0.35Q28.55-1.2 28.55-3.65L28.55-3.65Q28.55-4.5 28.75-5.35L28.75-5.35 25.65-2.35Q22.7 0.25 21.37 0.25 20.05 0.25 18.85-0.6L18.85-0.6Q17.5-1.6 17.5-3.25L17.5-3.25Q17.5-6.9 22.6-11.98 27.7-17.05 31.95-17.05L31.95-17.05Q33.6-17.05 34.15-15.9L34.15-15.9Q34.3-15.5 34.4-15.23 34.5-14.95 34.55-14.95ZM19.6-2.65L19.6-2.65Q19.6-0.85 20.85-0.85L20.85-0.85Q23.75-0.85 28.75-7.2L28.75-7.2 34.05-14.5Q33.65-15.2 32.75-15.2L32.75-15.2Q29.7-15.2 24.65-10.48 19.6-5.75 19.6-2.65ZM62.45-0.6L62.45-0.6Q59.05-0.6 59.05-3.75L59.05-3.75Q59.05-5.55 60.65-8.68 62.25-11.8 64-13.95L64-13.95Q60.9-12.45 56.84-8.53 52.8-4.6 51.2-0.3L51.2-0.3Q50.95 0.1 50.34 0.1L50.34 0.1Q49.15 0.1 49.15-1.25L49.15-1.25Q49.65-4 51.4-7.55L51.4-7.55Q51.95-8.7 54.65-14.25L54.65-14.25Q50.75-11.7 48.02-8.78 45.3-5.85 42.97-2.9 40.65 0.05 40.34 0.05L40.34 0.05Q39.7 0.05 39.22-0.55 38.75-1.15 38.75-1.75L38.75-1.75Q38.75-2.65 41.34-8.35L41.34-8.35 38.34-5.2Q37.25-4.1 36.97-4.1 36.7-4.1 36.7-4.42 36.7-4.75 37.09-5.15L37.09-5.15Q38.95-7 40.4-8.85 41.84-10.7 45.2-15.45L45.2-15.45Q45.75-16.2 46.75-16.2 47.75-16.2 47.75-15.25L47.75-15.25Q47.75-14.9 45.09-10.38 42.45-5.85 42.15-4.7L42.15-4.7Q44.2-6.95 48.3-10.75L48.3-10.75Q54.45-16.45 56.4-16.45L56.4-16.45Q57-16.45 57.5-16.1 58-15.75 58-15.33 58-14.9 56.05-11.55L56.05-11.55Q54.15-8.1 53.95-7.45L53.95-7.45Q59.5-12.1 59.5-12.15L59.5-12.15Q64.2-15.8 66.25-15.8L66.25-15.8Q66.84-15.8 67.37-15.43 67.9-15.05 67.9-14.55L67.9-14.55Q67.9-14.45 64.65-10.33 61.4-6.2 61-3.55L61-3.55Q60.9-2.65 61.34-2.2 61.8-1.75 62.97-1.75 64.15-1.75 66.42-3.38 68.7-5 71.05-7.75L71.05-7.75Q71.94-8.75 72.27-8.75 72.59-8.75 72.59-8.5L72.59-8.5Q72.59-8.15 72.15-7.7L72.15-7.7Q69.7-4.75 66.87-2.68 64.05-0.6 62.45-0.6ZM80.89-1.8L79.29-0.75Q77.84 0.1 75.72 0.1 73.59 0.1 72.47-1.3 71.34-2.7 70.54-5.75L70.54-5.75Q69.64-4.85 69.29-4.85L69.29-4.85Q69.04-4.85 69.04-5.2 69.04-5.55 69.29-5.8L69.29-5.8Q70.94-7.85 74.89-11.7L74.89-11.7 81.19-17.6Q83.89-20.15 84.39-20.15L84.39-20.15Q85.99-20.15 85.99-18.95L85.99-18.95Q85.99-18.35 85.52-17.78 85.04-17.2 84.82-16.88 84.59-16.55 84.34-16.25L84.34-16.25Q83.44-14.7 82.52-9.85 81.59-5 81.09-3.1L81.09-3.1Q85.24-3.15 89.64-8.5L89.64-8.5Q90.14-9 90.39-9 90.64-9 90.64-8.68 90.64-8.35 90.19-7.8L90.19-7.8Q87.29-4.4 84.79-3.05L84.79-3.05Q83.29-2.3 80.89-1.8L80.89-1.8ZM72.54-6.3L72.54-6.3Q72.54-4.6 73.67-3.53 74.79-2.45 76.19-2.45 77.59-2.45 78.34-3L78.34-3Q79.34-3.55 80.32-7.6 81.29-11.65 81.49-14.75L81.49-14.75 81.69-16.45Q78.94-14.4 75.82-11.15 72.69-7.9 72.59-6.85L72.59-6.85Q72.54-6.55 72.54-6.3ZM101.09-10.6L101.09-10.6Q101.09-8.85 97.74-4.75L97.74-4.75Q93.79 0.1 90.99 0.1L90.99 0.1 90.19 0.1Q88.89 0.1 88.14-1.25L88.14-1.25Q87.54-2.2 87.54-3.35L87.54-3.35Q87.54-6.35 91.92-11.78 96.29-17.2 98.99-17.2L98.99-17.2Q101.54-17.2 101.54-14.5L101.54-14.5Q101.54-13.8 101.29-12.7L101.29-12.7Q101.34-12.55 102.24-12.55 103.14-12.55 104.99-13.5L104.99-13.5Q104.94-12.65 101.04-11.05L101.04-11.05Q101.09-10.85 101.09-10.6ZM97.84-13.2L97.84-13.2Q96.14-13.2 93.02-9.2 89.89-5.2 89.89-3.3 89.89-1.4 91.09-1.4L91.09-1.4Q93.24-1.4 96.54-5.3 99.84-9.2 99.84-10.9L99.84-10.9Q99.04-11.35 97.84-13.2ZM110.14-15.8L110.14-15.8Q111.49-15.8 111.49-14.75L111.49-14.75Q111.49-14.45 111.34-14.15L111.34-14.15Q106.84-7.9 105.94-4.7L105.94-4.7Q117.59-16.35 120.09-16.35L120.09-16.35Q120.34-16.4 120.54-16.4L120.54-16.4Q121.94-16.4 121.94-15.15L121.94-15.15Q121.94-14.9 121.84-14.65 121.74-14.4 119.84-11.95L119.84-11.95Q117.64-9.35 116.11-6.95 114.59-4.55 114.59-2.95 114.59-1.35 115.29-1.35L115.29-1.35Q117.49-1.35 122.94-7.4L122.94-7.4Q123.04-7.5 123.29-7.85L123.29-7.85Q124.04-8.75 124.19-8.75 124.34-8.75 124.34-8.25 124.34-7.75 123.64-6.95L123.64-6.95Q117.44 0.1 114.84 0.1L114.84 0.1Q112.39 0.1 112.39-2.6 112.39-5.3 114.39-8.8L114.39-8.8 117.59-14Q114.19-11.5 111.54-8.53 108.89-5.55 106.71-2.75 104.54 0.05 104.19 0.05L104.19 0.05Q103.44 0.05 103.01-0.58 102.59-1.2 102.59-2.13 102.59-3.05 103.24-4.6 103.89-6.15 104.89-8.35L104.89-8.35 101.89-5.2Q100.79-4.1 100.51-4.1 100.24-4.1 100.24-4.42 100.24-4.75 100.64-5.15L100.64-5.15Q102.49-7 103.84-8.7L103.84-8.7Q105.14-10.4 109.19-15.2L109.19-15.2Q109.64-15.8 110.14-15.8ZM146.14-0.6L146.14-0.6Q142.74-0.6 142.74-3.75L142.74-3.75Q142.74-5.55 144.34-8.68 145.94-11.8 147.69-13.95L147.69-13.95Q144.59-12.45 140.54-8.53 136.49-4.6 134.89-0.3L134.89-0.3Q134.64 0.1 134.04 0.1L134.04 0.1Q132.84 0.1 132.84-1.25L132.84-1.25Q133.34-4 135.09-7.55L135.09-7.55Q135.64-8.7 138.34-14.25L138.34-14.25Q134.44-11.7 131.71-8.78 128.99-5.85 126.66-2.9 124.34 0.05 124.04 0.05L124.04 0.05Q123.39 0.05 122.91-0.55 122.44-1.15 122.44-1.75L122.44-1.75Q122.44-2.65 125.04-8.35L125.04-8.35 122.04-5.2Q120.94-4.1 120.66-4.1 120.39-4.1 120.39-4.42 120.39-4.75 120.79-5.15L120.79-5.15Q122.64-7 124.09-8.85 125.54-10.7 128.89-15.45L128.89-15.45Q129.44-16.2 130.44-16.2 131.44-16.2 131.44-15.25L131.44-15.25Q131.44-14.9 128.79-10.38 126.14-5.85 125.84-4.7L125.84-4.7Q127.89-6.95 131.99-10.75L131.99-10.75Q138.14-16.45 140.09-16.45L140.09-16.45Q140.69-16.45 141.19-16.1 141.69-15.75 141.69-15.33 141.69-14.9 139.74-11.55L139.74-11.55Q137.84-8.1 137.64-7.45L137.64-7.45Q143.19-12.1 143.19-12.15L143.19-12.15Q147.89-15.8 149.94-15.8L149.94-15.8Q150.54-15.8 151.06-15.43 151.59-15.05 151.59-14.55L151.59-14.55Q151.59-14.45 148.34-10.33 145.09-6.2 144.69-3.55L144.69-3.55Q144.59-2.65 145.04-2.2 145.49-1.75 146.66-1.75 147.84-1.75 150.11-3.38 152.39-5 154.74-7.75L154.74-7.75Q155.64-8.75 155.96-8.75 156.29-8.75 156.29-8.5L156.29-8.5Q156.29-8.15 155.84-7.7L155.84-7.7Q153.39-4.75 150.56-2.68 147.74-0.6 146.14-0.6ZM166.83-10.6L166.83-10.6Q166.83-8.85 163.48-4.75L163.48-4.75Q159.53 0.1 156.73 0.1L156.73 0.1 155.93 0.1Q154.63 0.1 153.88-1.25L153.88-1.25Q153.28-2.2 153.28-3.35L153.28-3.35Q153.28-6.35 157.66-11.78 162.03-17.2 164.73-17.2L164.73-17.2Q167.28-17.2 167.28-14.5L167.28-14.5Q167.28-13.8 167.03-12.7L167.03-12.7Q167.08-12.55 167.98-12.55 168.88-12.55 170.73-13.5L170.73-13.5Q170.68-12.65 166.78-11.05L166.78-11.05Q166.83-10.85 166.83-10.6ZM163.58-13.2L163.58-13.2Q161.88-13.2 158.76-9.2 155.63-5.2 155.63-3.3 155.63-1.4 156.83-1.4L156.83-1.4Q158.98-1.4 162.28-5.3 165.58-9.2 165.58-10.9L165.58-10.9Q164.78-11.35 163.58-13.2ZM169.78-2.5Q169.78-1 171.43-1 173.08-1 175.68-2.75 178.28-4.5 180.73-7.5L180.73-7.5Q181.33-8.3 181.68-8.3 182.03-8.3 182.03-8L182.03-8Q182.03-7.7 179.98-5.4L179.98-5.4Q174.98 0.1 171.63 0.1L171.63 0.1Q169.98 0.1 168.83-0.68 167.68-1.45 167.68-3.08 167.68-4.7 168.53-6.85L168.53-6.85Q169.98-10.25 173.18-15.4L173.18-15.4Q179.03-24.9 181.48-24.9L181.48-24.9Q181.98-24.9 182.51-24.53 183.03-24.15 183.08-23.7L183.08-23.7Q181.93-22.15 178.66-17.75 175.38-13.35 174.13-11.43 172.88-9.5 172.26-8.55 171.63-7.6 171.33-7.08 171.03-6.55 170.63-5.7L170.63-5.7Q169.78-4 169.78-2.5ZM193.03-10.6L193.03-10.6Q193.03-8.85 189.68-4.75L189.68-4.75Q185.73 0.1 182.93 0.1L182.93 0.1 182.13 0.1Q180.83 0.1 180.08-1.25L180.08-1.25Q179.48-2.2 179.48-3.35L179.48-3.35Q179.48-6.35 183.85-11.78 188.23-17.2 190.93-17.2L190.93-17.2Q193.48-17.2 193.48-14.5L193.48-14.5Q193.48-13.8 193.23-12.7L193.23-12.7Q193.28-12.55 194.18-12.55 195.08-12.55 196.93-13.5L196.93-13.5Q196.88-12.65 192.98-11.05L192.98-11.05Q193.03-10.85 193.03-10.6ZM189.78-13.2L189.78-13.2Q188.08-13.2 184.95-9.2 181.83-5.2 181.83-3.3 181.83-1.4 183.03-1.4L183.03-1.4Q185.18-1.4 188.48-5.3 191.78-9.2 191.78-10.9L191.78-10.9Q190.98-11.35 189.78-13.2ZM208.03 0.3L208.03 0.3Q207.78 0.35 206.95 0.35 206.13 0.35 205.3-0.3 204.48-0.95 204.48-1.98 204.48-3 204.85-4.25 205.23-5.5 205.38-6.15L205.38-6.15Q199.63 0.55 196.38 0.55L196.38 0.55Q194.33 0.55 194.13-2L194.13-2Q194.13-2.2 194.13-2.35L194.13-2.35Q194.13-4.5 196.73-8.15L196.73-8.15Q195.28-6.85 193.78-5.15L193.78-5.15Q193.58-4.95 193.28-4.95L193.28-4.95Q193.08-4.95 193.08-5.2 193.08-5.45 193.53-6.05L193.53-6.05 200.43-14.15Q201.73-15.65 203.08-15.65 204.43-15.65 204.43-14.75L204.43-14.75Q204.43-14.4 204.13-14.1L204.13-14.1Q202.13-12.25 199.1-7.95 196.08-3.65 196.08-1.6L196.08-1.6Q196.08-0.7 196.68-0.7L196.68-0.7Q198.78-0.7 202.78-4.85L202.78-4.85Q204.18-6.25 207.98-11.03 211.78-15.8 212.98-15.8L212.98-15.8Q214.78-15.8 214.78-14.4L214.78-14.4Q214.78-13.9 212.68-11.5L212.68-11.5Q209.83-8.05 208.33-5.88 206.83-3.7 206.83-2.35 206.83-1 207.58-1L207.58-1Q207.93-1 208.38-1.2L208.38-1.2Q211.83-2.7 216.63-8.2L216.63-8.2Q216.93-8.55 217.23-8.55 217.53-8.55 217.53-8.22 217.53-7.9 217.18-7.5L217.18-7.5Q215.03-5 212.13-2.48 209.23 0.05 208.03 0.3ZM221.57-3.15Q222.32-3.15 223-2.65 223.67-2.15 223.67-1.53 223.67-0.9 223.05-0.43 222.42 0.05 221.67 0.05 220.92 0.05 220.3-0.48 219.67-1 219.67-1.7L219.67-1.7Q219.67-3.15 221.57-3.15L221.57-3.15ZM242.97-15.15L242.97-15.15Q248.57-24.25 250.77-24.25L250.77-24.25Q251.12-24.25 251.75-24.03 252.37-23.8 252.37-23.35L252.37-23.35Q252.37-23.1 252.12-22.7L252.12-22.7Q248.12-17.8 246.17-15.35L246.17-15.35Q240.27-7.9 239.67-4.65L239.67-4.65Q239.52-3.95 239.52-3.25L239.52-3.25Q239.52-1 241.37-1L241.37-1Q245.07-1 251.02-7.85L251.02-7.85Q251.52-8.35 251.87-8.43 252.22-8.5 252.22-8.25 252.22-8 251.92-7.65L251.92-7.65Q246.12-0.7 241.62 0.1L241.62 0.1Q241.37 0.15 240.92 0.15L240.92 0.15Q239.37 0.15 238.6-0.93 237.82-2 237.82-3.25L237.82-3.25Q237.82-4.65 238.37-6.35L238.37-6.35 234.32-2.3Q231.57 0.25 230 0.25 228.42 0.25 227.37-0.6L227.37-0.6Q226.12-1.55 226.12-3.25L226.12-3.25Q226.12-6.9 231.22-11.98 236.32-17.05 240.57-17.05L240.57-17.05Q241.97-17.05 242.52-16.3L242.52-16.3Q242.72-16.05 242.97-15.15ZM228.22-2.65L228.22-2.65Q228.22-0.85 229.47-0.85L229.47-0.85Q231.62-0.85 236.62-6.75L236.62-6.75Q237.52-7.8 242.62-14.6L242.62-14.6Q242.27-15.2 241.42-15.2L241.42-15.2Q238.32-15.2 233.27-10.48 228.22-5.75 228.22-2.65ZM252.47 0.65L252.47 0.65Q251.92 0.65 251.47 0.5L251.47 0.5Q248.27-0.4 248.27-3.1L248.27-3.1Q248.27-6.6 252.67-11.2 257.07-15.8 260.57-15.8L260.57-15.8Q261.72-15.8 262.44-15.18 263.17-14.55 263.17-13.65L263.17-13.65Q263.17-10.85 258.94-8.3 254.72-5.75 252.07-5.75L252.07-5.75Q251.67-5.75 251.37-5.85L251.37-5.85Q250.62-4.5 250.62-3L250.62-3Q250.62-0.4 253.09-0.4 255.57-0.4 259.52-3.75L259.52-3.75Q262.57-6.2 264.72-8.95L264.72-8.95Q265.17-9.55 265.49-9.55 265.82-9.55 265.82-9.25 265.82-8.95 265.42-8.4L265.42-8.4Q262.72-4.85 258.92-2.1 255.12 0.65 252.47 0.65ZM261.92-13.75L261.92-13.75Q261.92-14.35 260.64-14.35 259.37-14.35 257.02-12.4L257.02-12.4Q253.87-9.8 252.12-6.95L252.12-6.95Q252.42-6.85 252.77-6.85L252.77-6.85Q254.67-6.85 257.84-8.88 261.02-10.9 261.82-13.3L261.82-13.3Q261.92-13.55 261.92-13.75ZM276.32-19.65L276.32-19.65Q277.82-19.65 278.87-18.65 279.92-17.65 279.92-15.85L279.92-15.85Q279.92-11.9 273.37-5.95L273.37-5.95Q267.82-0.95 264.42 0.15L264.42 0.15Q263.87 0.15 262.97-0.45 262.07-1.05 262.07-1.55L262.07-1.55Q262.07-2.65 264.47-9 266.87-15.35 267.77-16.1L267.77-16.1Q267.97-16.3 268.42-16.3 268.87-16.3 269.37-15.83 269.87-15.35 269.92-14.7L269.92-14.7Q269.92-14.65 267.44-8.9 264.97-3.15 265.12-2.05L265.12-2.05Q267.27-2.7 272.79-7.3 278.32-11.9 278.32-15.55L278.32-15.55Q278.32-17.75 276.12-18.75L276.12-18.75Q275.77-18.9 275.77-19.2L275.77-19.2Q275.77-19.65 276.32-19.65Z" opacity="1" transform="matrix(1,0,0,1,0,0)" fill="#ea3c12" class="undefined-text-0" data-fill-palette-color="primary" id="text-0"></path></svg></g></svg></g></svg></g></svg></g></svg></g></svg></g></svg></g></svg></g><defs><mask id="6b0c688d-032d-4ec4-8727-3de02199e286"><rect width="395.52" height="247.2" fill="white"></rect><g transform="matrix(1,0,0,1,2.842170943040401e-14,102.47563636363637)" id="clone"><svg viewBox="0 0 395.5199999999999 42.248727272727265" height="42.248727272727265" width="395.5199999999999"><g><svg viewBox="0 0 395.5199999999999 42.248727272727265" height="42.248727272727265" width="395.5199999999999"><g><svg viewBox="0 0 395.52000000000004 42.24872727272727" height="42.248727272727265" width="395.5199999999999"><g><svg viewBox="0 0 395.52000000000004 42.24872727272727" height="42.24872727272727" width="395.52000000000004"><g id="SvgjsG1364"><svg viewBox="0 0 395.52000000000004 42.24872727272727" height="42.24872727272727" width="395.52000000000004" id="SvgjsSvg1363"><g><svg viewBox="0 0 395.52000000000004 42.24872727272727" height="42.24872727272727" width="395.52000000000004"><g transform="matrix(1,0,0,1,0,0)"><svg width="395.52000000000004" viewBox="-4.05 -27.9 286.97 31.549999999999997" height="42.24872727272727" data-palette-color="#ea3c12"><path d="M10.8-1.8L9.2-0.75Q7.75 0.1 5.63 0.1 3.5 0.1 2.38-1.3 1.25-2.7 0.45-5.75L0.45-5.75Q-0.45-4.85-0.8-4.85L-0.8-4.85Q-1.05-4.85-1.05-5.2-1.05-5.55-0.8-5.8L-0.8-5.8Q0.85-7.85 4.8-11.7L4.8-11.7 11.1-17.6Q13.8-20.15 14.3-20.15L14.3-20.15Q15.9-20.15 15.9-18.95L15.9-18.95Q15.9-18.35 15.43-17.78 14.95-17.2 14.73-16.88 14.5-16.55 14.25-16.25L14.25-16.25Q13.35-14.7 12.43-9.85 11.5-5 11-3.1L11-3.1Q15.15-3.15 19.55-8.5L19.55-8.5Q20.05-9 20.3-9 20.55-9 20.55-8.68 20.55-8.35 20.1-7.8L20.1-7.8Q17.2-4.4 14.7-3.05L14.7-3.05Q13.2-2.3 10.8-1.8L10.8-1.8ZM2.45-6.3L2.45-6.3Q2.45-4.6 3.58-3.53 4.7-2.45 6.1-2.45 7.5-2.45 8.25-3L8.25-3Q9.25-3.55 10.23-7.6 11.2-11.65 11.4-14.75L11.4-14.75 11.6-16.45Q8.85-14.4 5.73-11.15 2.6-7.9 2.5-6.85L2.5-6.85Q2.45-6.55 2.45-6.3ZM34.55-14.95L34.55-14.95 35.25-15.1Q35.8-15.1 36.3-14.65 36.8-14.2 36.8-13.95 36.8-13.7 33.7-9.13 30.6-4.55 30.6-2.75L30.6-2.75Q30.6-2.6 30.65-2.45L30.65-2.45Q30.9-1.3 31.75-1.3L31.75-1.3Q34.35-1.3 41.25-9.9L41.25-9.9Q41.4-10.1 41.6-10.1 41.8-10.1 41.8-9.73 41.8-9.35 41.35-8.75L41.35-8.75Q34.95-0.2 31.6-0.2L31.6-0.2Q31.15-0.2 30.75-0.35L30.75-0.35Q28.55-1.2 28.55-3.65L28.55-3.65Q28.55-4.5 28.75-5.35L28.75-5.35 25.65-2.35Q22.7 0.25 21.37 0.25 20.05 0.25 18.85-0.6L18.85-0.6Q17.5-1.6 17.5-3.25L17.5-3.25Q17.5-6.9 22.6-11.98 27.7-17.05 31.95-17.05L31.95-17.05Q33.6-17.05 34.15-15.9L34.15-15.9Q34.3-15.5 34.4-15.23 34.5-14.95 34.55-14.95ZM19.6-2.65L19.6-2.65Q19.6-0.85 20.85-0.85L20.85-0.85Q23.75-0.85 28.75-7.2L28.75-7.2 34.05-14.5Q33.65-15.2 32.75-15.2L32.75-15.2Q29.7-15.2 24.65-10.48 19.6-5.75 19.6-2.65ZM62.45-0.6L62.45-0.6Q59.05-0.6 59.05-3.75L59.05-3.75Q59.05-5.55 60.65-8.68 62.25-11.8 64-13.95L64-13.95Q60.9-12.45 56.84-8.53 52.8-4.6 51.2-0.3L51.2-0.3Q50.95 0.1 50.34 0.1L50.34 0.1Q49.15 0.1 49.15-1.25L49.15-1.25Q49.65-4 51.4-7.55L51.4-7.55Q51.95-8.7 54.65-14.25L54.65-14.25Q50.75-11.7 48.02-8.78 45.3-5.85 42.97-2.9 40.65 0.05 40.34 0.05L40.34 0.05Q39.7 0.05 39.22-0.55 38.75-1.15 38.75-1.75L38.75-1.75Q38.75-2.65 41.34-8.35L41.34-8.35 38.34-5.2Q37.25-4.1 36.97-4.1 36.7-4.1 36.7-4.42 36.7-4.75 37.09-5.15L37.09-5.15Q38.95-7 40.4-8.85 41.84-10.7 45.2-15.45L45.2-15.45Q45.75-16.2 46.75-16.2 47.75-16.2 47.75-15.25L47.75-15.25Q47.75-14.9 45.09-10.38 42.45-5.85 42.15-4.7L42.15-4.7Q44.2-6.95 48.3-10.75L48.3-10.75Q54.45-16.45 56.4-16.45L56.4-16.45Q57-16.45 57.5-16.1 58-15.75 58-15.33 58-14.9 56.05-11.55L56.05-11.55Q54.15-8.1 53.95-7.45L53.95-7.45Q59.5-12.1 59.5-12.15L59.5-12.15Q64.2-15.8 66.25-15.8L66.25-15.8Q66.84-15.8 67.37-15.43 67.9-15.05 67.9-14.55L67.9-14.55Q67.9-14.45 64.65-10.33 61.4-6.2 61-3.55L61-3.55Q60.9-2.65 61.34-2.2 61.8-1.75 62.97-1.75 64.15-1.75 66.42-3.38 68.7-5 71.05-7.75L71.05-7.75Q71.94-8.75 72.27-8.75 72.59-8.75 72.59-8.5L72.59-8.5Q72.59-8.15 72.15-7.7L72.15-7.7Q69.7-4.75 66.87-2.68 64.05-0.6 62.45-0.6ZM80.89-1.8L79.29-0.75Q77.84 0.1 75.72 0.1 73.59 0.1 72.47-1.3 71.34-2.7 70.54-5.75L70.54-5.75Q69.64-4.85 69.29-4.85L69.29-4.85Q69.04-4.85 69.04-5.2 69.04-5.55 69.29-5.8L69.29-5.8Q70.94-7.85 74.89-11.7L74.89-11.7 81.19-17.6Q83.89-20.15 84.39-20.15L84.39-20.15Q85.99-20.15 85.99-18.95L85.99-18.95Q85.99-18.35 85.52-17.78 85.04-17.2 84.82-16.88 84.59-16.55 84.34-16.25L84.34-16.25Q83.44-14.7 82.52-9.85 81.59-5 81.09-3.1L81.09-3.1Q85.24-3.15 89.64-8.5L89.64-8.5Q90.14-9 90.39-9 90.64-9 90.64-8.68 90.64-8.35 90.19-7.8L90.19-7.8Q87.29-4.4 84.79-3.05L84.79-3.05Q83.29-2.3 80.89-1.8L80.89-1.8ZM72.54-6.3L72.54-6.3Q72.54-4.6 73.67-3.53 74.79-2.45 76.19-2.45 77.59-2.45 78.34-3L78.34-3Q79.34-3.55 80.32-7.6 81.29-11.65 81.49-14.75L81.49-14.75 81.69-16.45Q78.94-14.4 75.82-11.15 72.69-7.9 72.59-6.85L72.59-6.85Q72.54-6.55 72.54-6.3ZM101.09-10.6L101.09-10.6Q101.09-8.85 97.74-4.75L97.74-4.75Q93.79 0.1 90.99 0.1L90.99 0.1 90.19 0.1Q88.89 0.1 88.14-1.25L88.14-1.25Q87.54-2.2 87.54-3.35L87.54-3.35Q87.54-6.35 91.92-11.78 96.29-17.2 98.99-17.2L98.99-17.2Q101.54-17.2 101.54-14.5L101.54-14.5Q101.54-13.8 101.29-12.7L101.29-12.7Q101.34-12.55 102.24-12.55 103.14-12.55 104.99-13.5L104.99-13.5Q104.94-12.65 101.04-11.05L101.04-11.05Q101.09-10.85 101.09-10.6ZM97.84-13.2L97.84-13.2Q96.14-13.2 93.02-9.2 89.89-5.2 89.89-3.3 89.89-1.4 91.09-1.4L91.09-1.4Q93.24-1.4 96.54-5.3 99.84-9.2 99.84-10.9L99.84-10.9Q99.04-11.35 97.84-13.2ZM110.14-15.8L110.14-15.8Q111.49-15.8 111.49-14.75L111.49-14.75Q111.49-14.45 111.34-14.15L111.34-14.15Q106.84-7.9 105.94-4.7L105.94-4.7Q117.59-16.35 120.09-16.35L120.09-16.35Q120.34-16.4 120.54-16.4L120.54-16.4Q121.94-16.4 121.94-15.15L121.94-15.15Q121.94-14.9 121.84-14.65 121.74-14.4 119.84-11.95L119.84-11.95Q117.64-9.35 116.11-6.95 114.59-4.55 114.59-2.95 114.59-1.35 115.29-1.35L115.29-1.35Q117.49-1.35 122.94-7.4L122.94-7.4Q123.04-7.5 123.29-7.85L123.29-7.85Q124.04-8.75 124.19-8.75 124.34-8.75 124.34-8.25 124.34-7.75 123.64-6.95L123.64-6.95Q117.44 0.1 114.84 0.1L114.84 0.1Q112.39 0.1 112.39-2.6 112.39-5.3 114.39-8.8L114.39-8.8 117.59-14Q114.19-11.5 111.54-8.53 108.89-5.55 106.71-2.75 104.54 0.05 104.19 0.05L104.19 0.05Q103.44 0.05 103.01-0.58 102.59-1.2 102.59-2.13 102.59-3.05 103.24-4.6 103.89-6.15 104.89-8.35L104.89-8.35 101.89-5.2Q100.79-4.1 100.51-4.1 100.24-4.1 100.24-4.42 100.24-4.75 100.64-5.15L100.64-5.15Q102.49-7 103.84-8.7L103.84-8.7Q105.14-10.4 109.19-15.2L109.19-15.2Q109.64-15.8 110.14-15.8ZM146.14-0.6L146.14-0.6Q142.74-0.6 142.74-3.75L142.74-3.75Q142.74-5.55 144.34-8.68 145.94-11.8 147.69-13.95L147.69-13.95Q144.59-12.45 140.54-8.53 136.49-4.6 134.89-0.3L134.89-0.3Q134.64 0.1 134.04 0.1L134.04 0.1Q132.84 0.1 132.84-1.25L132.84-1.25Q133.34-4 135.09-7.55L135.09-7.55Q135.64-8.7 138.34-14.25L138.34-14.25Q134.44-11.7 131.71-8.78 128.99-5.85 126.66-2.9 124.34 0.05 124.04 0.05L124.04 0.05Q123.39 0.05 122.91-0.55 122.44-1.15 122.44-1.75L122.44-1.75Q122.44-2.65 125.04-8.35L125.04-8.35 122.04-5.2Q120.94-4.1 120.66-4.1 120.39-4.1 120.39-4.42 120.39-4.75 120.79-5.15L120.79-5.15Q122.64-7 124.09-8.85 125.54-10.7 128.89-15.45L128.89-15.45Q129.44-16.2 130.44-16.2 131.44-16.2 131.44-15.25L131.44-15.25Q131.44-14.9 128.79-10.38 126.14-5.85 125.84-4.7L125.84-4.7Q127.89-6.95 131.99-10.75L131.99-10.75Q138.14-16.45 140.09-16.45L140.09-16.45Q140.69-16.45 141.19-16.1 141.69-15.75 141.69-15.33 141.69-14.9 139.74-11.55L139.74-11.55Q137.84-8.1 137.64-7.45L137.64-7.45Q143.19-12.1 143.19-12.15L143.19-12.15Q147.89-15.8 149.94-15.8L149.94-15.8Q150.54-15.8 151.06-15.43 151.59-15.05 151.59-14.55L151.59-14.55Q151.59-14.45 148.34-10.33 145.09-6.2 144.69-3.55L144.69-3.55Q144.59-2.65 145.04-2.2 145.49-1.75 146.66-1.75 147.84-1.75 150.11-3.38 152.39-5 154.74-7.75L154.74-7.75Q155.64-8.75 155.96-8.75 156.29-8.75 156.29-8.5L156.29-8.5Q156.29-8.15 155.84-7.7L155.84-7.7Q153.39-4.75 150.56-2.68 147.74-0.6 146.14-0.6ZM166.83-10.6L166.83-10.6Q166.83-8.85 163.48-4.75L163.48-4.75Q159.53 0.1 156.73 0.1L156.73 0.1 155.93 0.1Q154.63 0.1 153.88-1.25L153.88-1.25Q153.28-2.2 153.28-3.35L153.28-3.35Q153.28-6.35 157.66-11.78 162.03-17.2 164.73-17.2L164.73-17.2Q167.28-17.2 167.28-14.5L167.28-14.5Q167.28-13.8 167.03-12.7L167.03-12.7Q167.08-12.55 167.98-12.55 168.88-12.55 170.73-13.5L170.73-13.5Q170.68-12.65 166.78-11.05L166.78-11.05Q166.83-10.85 166.83-10.6ZM163.58-13.2L163.58-13.2Q161.88-13.2 158.76-9.2 155.63-5.2 155.63-3.3 155.63-1.4 156.83-1.4L156.83-1.4Q158.98-1.4 162.28-5.3 165.58-9.2 165.58-10.9L165.58-10.9Q164.78-11.35 163.58-13.2ZM169.78-2.5Q169.78-1 171.43-1 173.08-1 175.68-2.75 178.28-4.5 180.73-7.5L180.73-7.5Q181.33-8.3 181.68-8.3 182.03-8.3 182.03-8L182.03-8Q182.03-7.7 179.98-5.4L179.98-5.4Q174.98 0.1 171.63 0.1L171.63 0.1Q169.98 0.1 168.83-0.68 167.68-1.45 167.68-3.08 167.68-4.7 168.53-6.85L168.53-6.85Q169.98-10.25 173.18-15.4L173.18-15.4Q179.03-24.9 181.48-24.9L181.48-24.9Q181.98-24.9 182.51-24.53 183.03-24.15 183.08-23.7L183.08-23.7Q181.93-22.15 178.66-17.75 175.38-13.35 174.13-11.43 172.88-9.5 172.26-8.55 171.63-7.6 171.33-7.08 171.03-6.55 170.63-5.7L170.63-5.7Q169.78-4 169.78-2.5ZM193.03-10.6L193.03-10.6Q193.03-8.85 189.68-4.75L189.68-4.75Q185.73 0.1 182.93 0.1L182.93 0.1 182.13 0.1Q180.83 0.1 180.08-1.25L180.08-1.25Q179.48-2.2 179.48-3.35L179.48-3.35Q179.48-6.35 183.85-11.78 188.23-17.2 190.93-17.2L190.93-17.2Q193.48-17.2 193.48-14.5L193.48-14.5Q193.48-13.8 193.23-12.7L193.23-12.7Q193.28-12.55 194.18-12.55 195.08-12.55 196.93-13.5L196.93-13.5Q196.88-12.65 192.98-11.05L192.98-11.05Q193.03-10.85 193.03-10.6ZM189.78-13.2L189.78-13.2Q188.08-13.2 184.95-9.2 181.83-5.2 181.83-3.3 181.83-1.4 183.03-1.4L183.03-1.4Q185.18-1.4 188.48-5.3 191.78-9.2 191.78-10.9L191.78-10.9Q190.98-11.35 189.78-13.2ZM208.03 0.3L208.03 0.3Q207.78 0.35 206.95 0.35 206.13 0.35 205.3-0.3 204.48-0.95 204.48-1.98 204.48-3 204.85-4.25 205.23-5.5 205.38-6.15L205.38-6.15Q199.63 0.55 196.38 0.55L196.38 0.55Q194.33 0.55 194.13-2L194.13-2Q194.13-2.2 194.13-2.35L194.13-2.35Q194.13-4.5 196.73-8.15L196.73-8.15Q195.28-6.85 193.78-5.15L193.78-5.15Q193.58-4.95 193.28-4.95L193.28-4.95Q193.08-4.95 193.08-5.2 193.08-5.45 193.53-6.05L193.53-6.05 200.43-14.15Q201.73-15.65 203.08-15.65 204.43-15.65 204.43-14.75L204.43-14.75Q204.43-14.4 204.13-14.1L204.13-14.1Q202.13-12.25 199.1-7.95 196.08-3.65 196.08-1.6L196.08-1.6Q196.08-0.7 196.68-0.7L196.68-0.7Q198.78-0.7 202.78-4.85L202.78-4.85Q204.18-6.25 207.98-11.03 211.78-15.8 212.98-15.8L212.98-15.8Q214.78-15.8 214.78-14.4L214.78-14.4Q214.78-13.9 212.68-11.5L212.68-11.5Q209.83-8.05 208.33-5.88 206.83-3.7 206.83-2.35 206.83-1 207.58-1L207.58-1Q207.93-1 208.38-1.2L208.38-1.2Q211.83-2.7 216.63-8.2L216.63-8.2Q216.93-8.55 217.23-8.55 217.53-8.55 217.53-8.22 217.53-7.9 217.18-7.5L217.18-7.5Q215.03-5 212.13-2.48 209.23 0.05 208.03 0.3ZM221.57-3.15Q222.32-3.15 223-2.65 223.67-2.15 223.67-1.53 223.67-0.9 223.05-0.43 222.42 0.05 221.67 0.05 220.92 0.05 220.3-0.48 219.67-1 219.67-1.7L219.67-1.7Q219.67-3.15 221.57-3.15L221.57-3.15ZM242.97-15.15L242.97-15.15Q248.57-24.25 250.77-24.25L250.77-24.25Q251.12-24.25 251.75-24.03 252.37-23.8 252.37-23.35L252.37-23.35Q252.37-23.1 252.12-22.7L252.12-22.7Q248.12-17.8 246.17-15.35L246.17-15.35Q240.27-7.9 239.67-4.65L239.67-4.65Q239.52-3.95 239.52-3.25L239.52-3.25Q239.52-1 241.37-1L241.37-1Q245.07-1 251.02-7.85L251.02-7.85Q251.52-8.35 251.87-8.43 252.22-8.5 252.22-8.25 252.22-8 251.92-7.65L251.92-7.65Q246.12-0.7 241.62 0.1L241.62 0.1Q241.37 0.15 240.92 0.15L240.92 0.15Q239.37 0.15 238.6-0.93 237.82-2 237.82-3.25L237.82-3.25Q237.82-4.65 238.37-6.35L238.37-6.35 234.32-2.3Q231.57 0.25 230 0.25 228.42 0.25 227.37-0.6L227.37-0.6Q226.12-1.55 226.12-3.25L226.12-3.25Q226.12-6.9 231.22-11.98 236.32-17.05 240.57-17.05L240.57-17.05Q241.97-17.05 242.52-16.3L242.52-16.3Q242.72-16.05 242.97-15.15ZM228.22-2.65L228.22-2.65Q228.22-0.85 229.47-0.85L229.47-0.85Q231.62-0.85 236.62-6.75L236.62-6.75Q237.52-7.8 242.62-14.6L242.62-14.6Q242.27-15.2 241.42-15.2L241.42-15.2Q238.32-15.2 233.27-10.48 228.22-5.75 228.22-2.65ZM252.47 0.65L252.47 0.65Q251.92 0.65 251.47 0.5L251.47 0.5Q248.27-0.4 248.27-3.1L248.27-3.1Q248.27-6.6 252.67-11.2 257.07-15.8 260.57-15.8L260.57-15.8Q261.72-15.8 262.44-15.18 263.17-14.55 263.17-13.65L263.17-13.65Q263.17-10.85 258.94-8.3 254.72-5.75 252.07-5.75L252.07-5.75Q251.67-5.75 251.37-5.85L251.37-5.85Q250.62-4.5 250.62-3L250.62-3Q250.62-0.4 253.09-0.4 255.57-0.4 259.52-3.75L259.52-3.75Q262.57-6.2 264.72-8.95L264.72-8.95Q265.17-9.55 265.49-9.55 265.82-9.55 265.82-9.25 265.82-8.95 265.42-8.4L265.42-8.4Q262.72-4.85 258.92-2.1 255.12 0.65 252.47 0.65ZM261.92-13.75L261.92-13.75Q261.92-14.35 260.64-14.35 259.37-14.35 257.02-12.4L257.02-12.4Q253.87-9.8 252.12-6.95L252.12-6.95Q252.42-6.85 252.77-6.85L252.77-6.85Q254.67-6.85 257.84-8.88 261.02-10.9 261.82-13.3L261.82-13.3Q261.92-13.55 261.92-13.75ZM276.32-19.65L276.32-19.65Q277.82-19.65 278.87-18.65 279.92-17.65 279.92-15.85L279.92-15.85Q279.92-11.9 273.37-5.95L273.37-5.95Q267.82-0.95 264.42 0.15L264.42 0.15Q263.87 0.15 262.97-0.45 262.07-1.05 262.07-1.55L262.07-1.55Q262.07-2.65 264.47-9 266.87-15.35 267.77-16.1L267.77-16.1Q267.97-16.3 268.42-16.3 268.87-16.3 269.37-15.83 269.87-15.35 269.92-14.7L269.92-14.7Q269.92-14.65 267.44-8.9 264.97-3.15 265.12-2.05L265.12-2.05Q267.27-2.7 272.79-7.3 278.32-11.9 278.32-15.55L278.32-15.55Q278.32-17.75 276.12-18.75L276.12-18.75Q275.77-18.9 275.77-19.2L275.77-19.2Q275.77-19.65 276.32-19.65Z" opacity="1" transform="matrix(1,0,0,1,0,0)" fill="#ea3c12" class="undefined-text-0" data-fill-palette-color="primary" id="SvgjsPath1362" stroke-width="5" stroke="black" stroke-linejoin="round"></path></svg></g></svg></g></svg></g></svg></g></svg></g></svg></g></svg></g></mask></defs></svg><rect width="395.52" height="247.2" fill="none" stroke="none" visibility="hidden"></rect></g></svg></g></svg>