<svg xmlns="http://www.w3.org/2000/svg" version="1.1" xmlns:xlink="http://www.w3.org/1999/xlink" xmlns:svgjs="http://svgjs.dev/svgjs" width="2000" height="429" viewBox="0 0 2000 429"><g transform="matrix(1,0,0,1,-1.2112696095522324,-0.825395240886337)"><svg viewBox="0 0 396 85" data-background-color="#ffffff" preserveAspectRatio="xMidYMid meet" height="429" width="2000" xmlns="http://www.w3.org/2000/svg" xmlns:xlink="http://www.w3.org/1999/xlink"><g id="tight-bounds" transform="matrix(1,0,0,1,0.24008861730862918,0.1635398495928655)"><svg viewBox="0 0 395.52 84.67292030081427" height="84.67292030081427" width="395.52"><g><svg viewBox="0 0 395.52 84.67292030081427" height="84.67292030081427" width="395.52"><g><svg viewBox="0 0 395.52 84.67292030081427" height="84.67292030081427" width="395.52"><g id="textblocktransform"><svg viewBox="0 0 395.52 84.67292030081427" height="84.67292030081427" width="395.52" id="textblock"><g><svg viewBox="0 0 395.52 84.67292030081427" height="84.67292030081427" width="395.52"><path d="M394.594 18.161C392.735 9.372 387.435 6.928 387.435 6.928 371.165-2.124 350.86-0.173 332.619 1.128 300.414 1.18 268.339 3.114 236.208 4.151 168.767 4.309 100.749 1.708 33.643 8.124 27.339 10.092-6.54 8.51 1.121 19.286 3.129 23.768 10.456 28.743 10.232 32.856 11.236 33.577 12.631 31.924 13.226 32.961 15.309 35.756 18.711 34.438 21.501 36.09 17.614 40.502 20.403 44.176 23.062 48.026 18.377 49.028 12.371 48.553 9.675 51.875 9.396 54.284 7.89 53.827 6.235 53.721 5.026 53.651 2.59 53.914 2.999 54.67 4.394 57.254-1.594 58.748 2.162 61.28-0.422 64.022 3.948 66.395 3.353 69.366 3.278 69.963 3.687 70.473 4.338 70.614 7.22 71.369 3.018 72.846 3.464 74.446 33.029 85.379 65.104 77.821 95.394 82.848 103.259 79.332 97.346 84.096 100.489 83.358 102.943 82.496 104.728 86.065 107.499 84.043 107.927 83.463 107.276 82.092 108.8 82.356 109.6 82.496 110.307 82.461 110.418 81.653 110.586 80.44 109.117 81.196 108.726 80.563 112.947 77.364 111.906 84.975 115.866 84.658 115.68 83.727 114.528 82.391 116.889 82.567 119.232 81.231 119.306 80.123 121.389 83.129 121.463 83.78 121.835 84.237 122.43 84.553 128.938 81.283 135.409 85.713 142.233 84.237 146.417 82.619 150.433 85.115 154.672 84.5 156.16 84.008 157.666 83.129 159.098 84.606 176.632 84.922 195.319 83.604 211.943 84.658 256.364 82.69 303.836 85.467 350.674 82.865 361.719 81.864 373.192 80.44 383.958 79.297 383.958 79.297 392.679 76.168 392.679 62.106S394.538 49.801 394.817 38.604C395.096 27.407 396.398 26.95 394.538 18.161Z" opacity="1" fill="#6230a3" data-fill-palette-color="tertiary"></path><g transform="matrix(1,0,0,1,55.76832,26.230666666666668)"><svg width="283.98335999999995" viewBox="0.7 -35.8 321.31 36.449999999999996" height="32.21158696748093" data-palette-color="#ffffff"><path d="M40.1-21.95L40.1-21.95Q40.1-15.7 33.7-10.05L33.7-10.05Q23.9-1.3 11.65-1.3L11.65-1.3Q10.3-1.3 9.55-1.35L9.55-1.35Q5.6-1.6 3.15-4 0.7-6.4 0.7-10.23 0.7-14.05 2.75-18.55L2.75-18.55Q5.35-24.2 13-29.65L13-29.65Q21.6-35.8 30.9-35.8L30.9-35.8Q35.85-35.8 38.45-33.93 41.05-32.05 41.05-29.1L41.05-29.1Q41.05-27.35 40.38-26 39.7-24.65 39.75-24.6L39.75-24.6Q40.1-23.4 40.1-21.95ZM25.7-24.15L25.7-24.15 26.4-24.3Q26.95-24.3 27.43-23.85 27.9-23.4 27.93-23.05 27.95-22.7 26.95-21.23 25.95-19.75 23.75-16.65L23.75-16.65Q21.8-13.45 21.8-12.03 21.8-10.6 23-10.6L23-10.6Q24.75-10.6 29.1-14.58 33.45-18.55 37-22.85L37-22.85 37-22.95Q36.65-25.65 34.5-27.6L34.5-27.6Q31.05-30.65 26.15-30.65L26.15-30.65Q22.85-30.75 22.35-30.9L22.35-30.9Q22.3-31.05 22.4-31.1L22.4-31.1Q24.75-31.9 26.9-31.9 29.05-31.9 31.7-31.25L31.7-31.25Q36.8-30.05 38.95-26.4L38.95-26.4Q39.1-26.2 39.15-26.4L39.15-26.4Q39.55-27.6 39.55-28.93 39.55-30.25 38.45-31.8L38.45-31.8Q36.35-34.8 30.63-34.8 24.9-34.8 18.4-31 11.9-27.2 7.65-21.33 3.4-15.45 3.4-9.1 3.4-2.75 10.05-2.4L10.05-2.4Q10.8-2.35 11.55-2.35L11.55-2.35Q21.4-2.35 30.2-10.2L30.2-10.2Q36.3-15.7 37.05-20.6L37.05-20.6Q36.95-20.7 36.85-20.7L36.85-20.7 30.75-13.95Q26.15-9.5 23.2-9.5L23.2-9.5Q22.45-9.5 21.9-9.7L21.9-9.7Q19.7-10.55 19.7-13L19.7-13Q19.7-13.4 19.8-14.3L19.8-14.3Q19.7-14.4 19.6-14.4L19.6-14.4Q14.1-9.15 12.45-9.15L12.45-9.15Q11.2-9.15 10.1-9.95L10.1-9.95Q8.65-10.85 8.65-12.6L8.65-12.6Q8.65-16.25 13.78-21.23 18.9-26.2 23.1-26.2L23.1-26.2Q25-26.2 25.4-24.75L25.4-24.75 25.5-24.45 25.5-24.35Q25.6-24.15 25.7-24.15ZM10.75-11.95L10.75-11.95Q10.75-10.25 12-10.25L12-10.25Q14.5-10.25 18.95-15.35L18.95-15.35Q20.05-16.55 22.63-20.13 25.2-23.7 25.2-23.7 25.2-23.7 25.15-23.75L25.15-23.75Q24.8-24.35 23.95-24.35L23.95-24.35Q20.8-24.35 15.78-19.68 10.75-15 10.75-11.95ZM52.9-1.8L51.3-0.75Q49.85 0.1 47.72 0.1 45.6 0.1 44.47-1.3 43.35-2.7 42.55-5.75L42.55-5.75Q41.65-4.85 41.3-4.85L41.3-4.85Q41.05-4.85 41.05-5.2 41.05-5.55 41.3-5.8L41.3-5.8Q42.95-7.85 46.9-11.7L46.9-11.7 53.2-17.6Q55.9-20.15 56.4-20.15L56.4-20.15Q58-20.15 58-18.95L58-18.95Q58-18.35 57.52-17.78 57.05-17.2 56.82-16.88 56.6-16.55 56.35-16.25L56.35-16.25Q55.45-14.7 54.52-9.85 53.6-5 53.1-3.1L53.1-3.1Q57.25-3.15 61.65-8.5L61.65-8.5Q62.15-9 62.4-9 62.65-9 62.65-8.68 62.65-8.35 62.2-7.8L62.2-7.8Q59.3-4.4 56.8-3.05L56.8-3.05Q55.3-2.3 52.9-1.8L52.9-1.8ZM44.55-6.3L44.55-6.3Q44.55-4.6 45.67-3.53 46.8-2.45 48.2-2.45 49.6-2.45 50.35-3L50.35-3Q51.35-3.55 52.32-7.6 53.3-11.65 53.5-14.75L53.5-14.75 53.7-16.45Q50.95-14.4 47.82-11.15 44.7-7.9 44.6-6.85L44.6-6.85Q44.55-6.55 44.55-6.3ZM76.65-14.95L76.65-14.95 77.34-15.1Q77.9-15.1 78.4-14.65 78.9-14.2 78.9-13.95 78.9-13.7 75.8-9.13 72.7-4.55 72.7-2.75L72.7-2.75Q72.7-2.6 72.75-2.45L72.75-2.45Q73-1.3 73.84-1.3L73.84-1.3Q76.45-1.3 83.34-9.9L83.34-9.9Q83.5-10.1 83.7-10.1 83.9-10.1 83.9-9.73 83.9-9.35 83.45-8.75L83.45-8.75Q77.05-0.2 73.7-0.2L73.7-0.2Q73.25-0.2 72.84-0.35L72.84-0.35Q70.65-1.2 70.65-3.65L70.65-3.65Q70.65-4.5 70.84-5.35L70.84-5.35 67.75-2.35Q64.8 0.25 63.47 0.25 62.15 0.25 60.95-0.6L60.95-0.6Q59.59-1.6 59.59-3.25L59.59-3.25Q59.59-6.9 64.7-11.98 69.8-17.05 74.05-17.05L74.05-17.05Q75.7-17.05 76.25-15.9L76.25-15.9Q76.4-15.5 76.5-15.23 76.59-14.95 76.65-14.95ZM61.7-2.65L61.7-2.65Q61.7-0.85 62.95-0.85L62.95-0.85Q65.84-0.85 70.84-7.2L70.84-7.2 76.15-14.5Q75.75-15.2 74.84-15.2L74.84-15.2Q71.8-15.2 66.75-10.48 61.7-5.75 61.7-2.65ZM104.54-0.6L104.54-0.6Q101.14-0.6 101.14-3.75L101.14-3.75Q101.14-5.55 102.74-8.68 104.34-11.8 106.09-13.95L106.09-13.95Q102.99-12.45 98.94-8.53 94.89-4.6 93.29-0.3L93.29-0.3Q93.04 0.1 92.44 0.1L92.44 0.1Q91.24 0.1 91.24-1.25L91.24-1.25Q91.74-4 93.49-7.55L93.49-7.55Q94.04-8.7 96.74-14.25L96.74-14.25Q92.84-11.7 90.12-8.78 87.39-5.85 85.07-2.9 82.74 0.05 82.44 0.05L82.44 0.05Q81.79 0.05 81.32-0.55 80.84-1.15 80.84-1.75L80.84-1.75Q80.84-2.65 83.44-8.35L83.44-8.35 80.44-5.2Q79.34-4.1 79.07-4.1 78.79-4.1 78.79-4.42 78.79-4.75 79.19-5.15L79.19-5.15Q81.04-7 82.49-8.85 83.94-10.7 87.29-15.45L87.29-15.45Q87.84-16.2 88.84-16.2 89.84-16.2 89.84-15.25L89.84-15.25Q89.84-14.9 87.19-10.38 84.54-5.85 84.24-4.7L84.24-4.7Q86.29-6.95 90.39-10.75L90.39-10.75Q96.54-16.45 98.49-16.45L98.49-16.45Q99.09-16.45 99.59-16.1 100.09-15.75 100.09-15.33 100.09-14.9 98.14-11.55L98.14-11.55Q96.24-8.1 96.04-7.45L96.04-7.45Q101.59-12.1 101.59-12.15L101.59-12.15Q106.29-15.8 108.34-15.8L108.34-15.8Q108.94-15.8 109.47-15.43 109.99-15.05 109.99-14.55L109.99-14.55Q109.99-14.45 106.74-10.33 103.49-6.2 103.09-3.55L103.09-3.55Q102.99-2.65 103.44-2.2 103.89-1.75 105.07-1.75 106.24-1.75 108.52-3.38 110.79-5 113.14-7.75L113.14-7.75Q114.04-8.75 114.37-8.75 114.69-8.75 114.69-8.5L114.69-8.5Q114.69-8.15 114.24-7.7L114.24-7.7Q111.79-4.75 108.97-2.68 106.14-0.6 104.54-0.6ZM122.99-1.8L121.39-0.75Q119.94 0.1 117.82 0.1 115.69 0.1 114.57-1.3 113.44-2.7 112.64-5.75L112.64-5.75Q111.74-4.85 111.39-4.85L111.39-4.85Q111.14-4.85 111.14-5.2 111.14-5.55 111.39-5.8L111.39-5.8Q113.04-7.85 116.99-11.7L116.99-11.7 123.29-17.6Q125.99-20.15 126.49-20.15L126.49-20.15Q128.09-20.15 128.09-18.95L128.09-18.95Q128.09-18.35 127.62-17.78 127.14-17.2 126.92-16.88 126.69-16.55 126.44-16.25L126.44-16.25Q125.54-14.7 124.62-9.85 123.69-5 123.19-3.1L123.19-3.1Q127.34-3.15 131.74-8.5L131.74-8.5Q132.24-9 132.49-9 132.74-9 132.74-8.68 132.74-8.35 132.29-7.8L132.29-7.8Q129.39-4.4 126.89-3.05L126.89-3.05Q125.39-2.3 122.99-1.8L122.99-1.8ZM114.64-6.3L114.64-6.3Q114.64-4.6 115.77-3.53 116.89-2.45 118.29-2.45 119.69-2.45 120.44-3L120.44-3Q121.44-3.55 122.42-7.6 123.39-11.65 123.59-14.75L123.59-14.75 123.79-16.45Q121.04-14.4 117.92-11.15 114.79-7.9 114.69-6.85L114.69-6.85Q114.64-6.55 114.64-6.3ZM143.19-10.6L143.19-10.6Q143.19-8.85 139.84-4.75L139.84-4.75Q135.89 0.1 133.09 0.1L133.09 0.1 132.29 0.1Q130.99 0.1 130.24-1.25L130.24-1.25Q129.64-2.2 129.64-3.35L129.64-3.35Q129.64-6.35 134.01-11.78 138.39-17.2 141.09-17.2L141.09-17.2Q143.64-17.2 143.64-14.5L143.64-14.5Q143.64-13.8 143.39-12.7L143.39-12.7Q143.44-12.55 144.34-12.55 145.24-12.55 147.09-13.5L147.09-13.5Q147.04-12.65 143.14-11.05L143.14-11.05Q143.19-10.85 143.19-10.6ZM139.94-13.2L139.94-13.2Q138.24-13.2 135.11-9.2 131.99-5.2 131.99-3.3 131.99-1.4 133.19-1.4L133.19-1.4Q135.34-1.4 138.64-5.3 141.94-9.2 141.94-10.9L141.94-10.9Q141.14-11.35 139.94-13.2ZM152.24-15.8L152.24-15.8Q153.59-15.8 153.59-14.75L153.59-14.75Q153.59-14.45 153.44-14.15L153.44-14.15Q148.94-7.9 148.04-4.7L148.04-4.7Q159.69-16.35 162.19-16.35L162.19-16.35Q162.44-16.4 162.64-16.4L162.64-16.4Q164.04-16.4 164.04-15.15L164.04-15.15Q164.04-14.9 163.94-14.65 163.84-14.4 161.94-11.95L161.94-11.95Q159.74-9.35 158.21-6.95 156.69-4.55 156.69-2.95 156.69-1.35 157.39-1.35L157.39-1.35Q159.59-1.35 165.04-7.4L165.04-7.4Q165.14-7.5 165.39-7.85L165.39-7.85Q166.14-8.75 166.29-8.75 166.44-8.75 166.44-8.25 166.44-7.75 165.74-6.95L165.74-6.95Q159.54 0.1 156.94 0.1L156.94 0.1Q154.49 0.1 154.49-2.6 154.49-5.3 156.49-8.8L156.49-8.8 159.69-14Q156.29-11.5 153.64-8.53 150.99-5.55 148.81-2.75 146.64 0.05 146.29 0.05L146.29 0.05Q145.54 0.05 145.11-0.58 144.69-1.2 144.69-2.13 144.69-3.05 145.34-4.6 145.99-6.15 146.99-8.35L146.99-8.35 143.99-5.2Q142.89-4.1 142.61-4.1 142.34-4.1 142.34-4.42 142.34-4.75 142.74-5.15L142.74-5.15Q144.59-7 145.94-8.7L145.94-8.7Q147.24-10.4 151.29-15.2L151.29-15.2Q151.74-15.8 152.24-15.8ZM188.23-0.6L188.23-0.6Q184.83-0.6 184.83-3.75L184.83-3.75Q184.83-5.55 186.43-8.68 188.03-11.8 189.78-13.95L189.78-13.95Q186.68-12.45 182.63-8.53 178.58-4.6 176.98-0.3L176.98-0.3Q176.73 0.1 176.13 0.1L176.13 0.1Q174.93 0.1 174.93-1.25L174.93-1.25Q175.43-4 177.18-7.55L177.18-7.55Q177.73-8.7 180.43-14.25L180.43-14.25Q176.53-11.7 173.81-8.78 171.08-5.85 168.76-2.9 166.43 0.05 166.13 0.05L166.13 0.05Q165.48 0.05 165.01-0.55 164.53-1.15 164.53-1.75L164.53-1.75Q164.53-2.65 167.13-8.35L167.13-8.35 164.13-5.2Q163.03-4.1 162.76-4.1 162.48-4.1 162.48-4.42 162.48-4.75 162.88-5.15L162.88-5.15Q164.73-7 166.18-8.85 167.63-10.7 170.98-15.45L170.98-15.45Q171.53-16.2 172.53-16.2 173.53-16.2 173.53-15.25L173.53-15.25Q173.53-14.9 170.88-10.38 168.23-5.85 167.93-4.7L167.93-4.7Q169.98-6.95 174.08-10.75L174.08-10.75Q180.23-16.45 182.18-16.45L182.18-16.45Q182.78-16.45 183.28-16.1 183.78-15.75 183.78-15.33 183.78-14.9 181.83-11.55L181.83-11.55Q179.93-8.1 179.73-7.45L179.73-7.45Q185.28-12.1 185.28-12.15L185.28-12.15Q189.98-15.8 192.03-15.8L192.03-15.8Q192.63-15.8 193.16-15.43 193.68-15.05 193.68-14.55L193.68-14.55Q193.68-14.45 190.43-10.33 187.18-6.2 186.78-3.55L186.78-3.55Q186.68-2.65 187.13-2.2 187.58-1.75 188.76-1.75 189.93-1.75 192.21-3.38 194.48-5 196.83-7.75L196.83-7.75Q197.73-8.75 198.06-8.75 198.38-8.75 198.38-8.5L198.38-8.5Q198.38-8.15 197.93-7.7L197.93-7.7Q195.48-4.75 192.66-2.68 189.83-0.6 188.23-0.6ZM208.93-10.6L208.93-10.6Q208.93-8.85 205.58-4.75L205.58-4.75Q201.63 0.1 198.83 0.1L198.83 0.1 198.03 0.1Q196.73 0.1 195.98-1.25L195.98-1.25Q195.38-2.2 195.38-3.35L195.38-3.35Q195.38-6.35 199.76-11.78 204.13-17.2 206.83-17.2L206.83-17.2Q209.38-17.2 209.38-14.5L209.38-14.5Q209.38-13.8 209.13-12.7L209.13-12.7Q209.18-12.55 210.08-12.55 210.98-12.55 212.83-13.5L212.83-13.5Q212.78-12.65 208.88-11.05L208.88-11.05Q208.93-10.85 208.93-10.6ZM205.68-13.2L205.68-13.2Q203.98-13.2 200.86-9.2 197.73-5.2 197.73-3.3 197.73-1.4 198.93-1.4L198.93-1.4Q201.08-1.4 204.38-5.3 207.68-9.2 207.68-10.9L207.68-10.9Q206.88-11.35 205.68-13.2ZM211.88-2.5Q211.88-1 213.53-1 215.18-1 217.78-2.75 220.38-4.5 222.83-7.5L222.83-7.5Q223.43-8.3 223.78-8.3 224.13-8.3 224.13-8L224.13-8Q224.13-7.7 222.08-5.4L222.08-5.4Q217.08 0.1 213.73 0.1L213.73 0.1Q212.08 0.1 210.93-0.68 209.78-1.45 209.78-3.08 209.78-4.7 210.63-6.85L210.63-6.85Q212.08-10.25 215.28-15.4L215.28-15.4Q221.13-24.9 223.58-24.9L223.58-24.9Q224.08-24.9 224.6-24.53 225.13-24.15 225.18-23.7L225.18-23.7Q224.03-22.15 220.75-17.75 217.48-13.35 216.23-11.43 214.98-9.5 214.35-8.55 213.73-7.6 213.43-7.08 213.13-6.55 212.73-5.7L212.73-5.7Q211.88-4 211.88-2.5ZM235.13-10.6L235.13-10.6Q235.13-8.85 231.78-4.75L231.78-4.75Q227.83 0.1 225.03 0.1L225.03 0.1 224.23 0.1Q222.93 0.1 222.18-1.25L222.18-1.25Q221.58-2.2 221.58-3.35L221.58-3.35Q221.58-6.35 225.95-11.78 230.33-17.2 233.03-17.2L233.03-17.2Q235.58-17.2 235.58-14.5L235.58-14.5Q235.58-13.8 235.33-12.7L235.33-12.7Q235.38-12.55 236.28-12.55 237.18-12.55 239.03-13.5L239.03-13.5Q238.98-12.65 235.08-11.05L235.08-11.05Q235.13-10.85 235.13-10.6ZM231.88-13.2L231.88-13.2Q230.18-13.2 227.05-9.2 223.93-5.2 223.93-3.3 223.93-1.4 225.13-1.4L225.13-1.4Q227.28-1.4 230.58-5.3 233.88-9.2 233.88-10.9L233.88-10.9Q233.08-11.35 231.88-13.2ZM250.12 0.3L250.12 0.3Q249.87 0.35 249.05 0.35 248.22 0.35 247.4-0.3 246.57-0.95 246.57-1.98 246.57-3 246.95-4.25 247.32-5.5 247.47-6.15L247.47-6.15Q241.72 0.55 238.47 0.55L238.47 0.55Q236.42 0.55 236.22-2L236.22-2Q236.22-2.2 236.22-2.35L236.22-2.35Q236.22-4.5 238.82-8.15L238.82-8.15Q237.37-6.85 235.87-5.15L235.87-5.15Q235.67-4.95 235.37-4.95L235.37-4.95Q235.17-4.95 235.17-5.2 235.17-5.45 235.62-6.05L235.62-6.05 242.52-14.15Q243.82-15.65 245.17-15.65 246.52-15.65 246.52-14.75L246.52-14.75Q246.52-14.4 246.22-14.1L246.22-14.1Q244.22-12.25 241.2-7.95 238.17-3.65 238.17-1.6L238.17-1.6Q238.17-0.7 238.77-0.7L238.77-0.7Q240.87-0.7 244.87-4.85L244.87-4.85Q246.27-6.25 250.07-11.03 253.87-15.8 255.07-15.8L255.07-15.8Q256.87-15.8 256.87-14.4L256.87-14.4Q256.87-13.9 254.77-11.5L254.77-11.5Q251.92-8.05 250.42-5.88 248.92-3.7 248.92-2.35 248.92-1 249.67-1L249.67-1Q250.02-1 250.47-1.2L250.47-1.2Q253.92-2.7 258.72-8.2L258.72-8.2Q259.02-8.55 259.32-8.55 259.62-8.55 259.62-8.22 259.62-7.9 259.27-7.5L259.27-7.5Q257.12-5 254.22-2.48 251.32 0.05 250.12 0.3ZM263.67-3.15Q264.42-3.15 265.1-2.65 265.77-2.15 265.77-1.53 265.77-0.9 265.15-0.43 264.52 0.05 263.77 0.05 263.02 0.05 262.4-0.48 261.77-1 261.77-1.7L261.77-1.7Q261.77-3.15 263.67-3.15L263.67-3.15ZM285.07-15.15L285.07-15.15Q290.67-24.25 292.87-24.25L292.87-24.25Q293.22-24.25 293.84-24.03 294.47-23.8 294.47-23.35L294.47-23.35Q294.47-23.1 294.22-22.7L294.22-22.7Q290.22-17.8 288.27-15.35L288.27-15.35Q282.37-7.9 281.77-4.65L281.77-4.65Q281.62-3.95 281.62-3.25L281.62-3.25Q281.62-1 283.47-1L283.47-1Q287.17-1 293.12-7.85L293.12-7.85Q293.62-8.35 293.97-8.43 294.32-8.5 294.32-8.25 294.32-8 294.02-7.65L294.02-7.65Q288.22-0.7 283.72 0.1L283.72 0.1Q283.47 0.15 283.02 0.15L283.02 0.15Q281.47 0.15 280.69-0.93 279.92-2 279.92-3.25L279.92-3.25Q279.92-4.65 280.47-6.35L280.47-6.35 276.42-2.3Q273.67 0.25 272.09 0.25 270.52 0.25 269.47-0.6L269.47-0.6Q268.22-1.55 268.22-3.25L268.22-3.25Q268.22-6.9 273.32-11.98 278.42-17.05 282.67-17.05L282.67-17.05Q284.07-17.05 284.62-16.3L284.62-16.3Q284.82-16.05 285.07-15.15ZM270.32-2.65L270.32-2.65Q270.32-0.85 271.57-0.85L271.57-0.85Q273.72-0.85 278.72-6.75L278.72-6.75Q279.62-7.8 284.72-14.6L284.72-14.6Q284.37-15.2 283.52-15.2L283.52-15.2Q280.42-15.2 275.37-10.48 270.32-5.75 270.32-2.65ZM294.57 0.65L294.57 0.65Q294.02 0.65 293.57 0.5L293.57 0.5Q290.37-0.4 290.37-3.1L290.37-3.1Q290.37-6.6 294.77-11.2 299.17-15.8 302.67-15.8L302.67-15.8Q303.82-15.8 304.54-15.18 305.27-14.55 305.27-13.65L305.27-13.65Q305.27-10.85 301.04-8.3 296.82-5.75 294.17-5.75L294.17-5.75Q293.77-5.75 293.47-5.85L293.47-5.85Q292.72-4.5 292.72-3L292.72-3Q292.72-0.4 295.19-0.4 297.67-0.4 301.62-3.75L301.62-3.75Q304.67-6.2 306.82-8.95L306.82-8.95Q307.27-9.55 307.59-9.55 307.92-9.55 307.92-9.25 307.92-8.95 307.52-8.4L307.52-8.4Q304.82-4.85 301.02-2.1 297.22 0.65 294.57 0.65ZM304.02-13.75L304.02-13.75Q304.02-14.35 302.74-14.35 301.47-14.35 299.12-12.4L299.12-12.4Q295.97-9.8 294.22-6.95L294.22-6.95Q294.52-6.85 294.87-6.85L294.87-6.85Q296.77-6.85 299.94-8.88 303.12-10.9 303.92-13.3L303.92-13.3Q304.02-13.55 304.02-13.75ZM318.41-19.65L318.41-19.65Q319.91-19.65 320.96-18.65 322.01-17.65 322.01-15.85L322.01-15.85Q322.01-11.9 315.46-5.95L315.46-5.95Q309.91-0.95 306.51 0.15L306.51 0.15Q305.96 0.15 305.06-0.45 304.16-1.05 304.16-1.55L304.16-1.55Q304.16-2.65 306.56-9 308.96-15.35 309.86-16.1L309.86-16.1Q310.06-16.3 310.51-16.3 310.96-16.3 311.46-15.83 311.96-15.35 312.01-14.7L312.01-14.7Q312.01-14.65 309.54-8.9 307.06-3.15 307.21-2.05L307.21-2.05Q309.36-2.7 314.89-7.3 320.41-11.9 320.41-15.55L320.41-15.55Q320.41-17.75 318.21-18.75L318.21-18.75Q317.86-18.9 317.86-19.2L317.86-19.2Q317.86-19.65 318.41-19.65Z" opacity="1" transform="matrix(1,0,0,1,0,0)" fill="#ffffff" class="undefined-text-0" data-fill-palette-color="quaternary" id="text-0"></path></svg></g></svg></g></svg></g></svg></g><g></g></svg></g><defs></defs></svg><rect width="395.52" height="84.67292030081427" fill="none" stroke="none" visibility="hidden"></rect></g></svg></g></svg>